<?xml version="1.0" standalone="no"?>
<!DOCTYPE svg PUBLIC "-//W3C//DTD SVG 20010904//EN"
 "http://www.w3.org/TR/2001/REC-SVG-20010904/DTD/svg10.dtd">
<svg version="1.0" xmlns="http://www.w3.org/2000/svg"
 width="700.000000pt" height="700.000000pt" viewBox="0 0 700.000000 700.000000"
 preserveAspectRatio="xMidYMid meet">
<metadata>
Created by potrace 1.14, written by Peter Selinger 2001-2017
</metadata>
<g transform="translate(0.000000,700.000000) scale(0.100000,-0.100000)"
fill="#000000" stroke="none">
<path d="M4520 5488 c-82 -8 -110 -14 -170 -37 -166 -63 -309 -192 -390 -351
-23 -45 -58 -139 -66 -175 -29 -142 -36 -193 -37 -279 -3 -207 31 -378 138
-699 32 -97 58 -194 62 -232 5 -59 4 -68 -17 -90 -29 -31 -46 -30 -250 14
-125 26 -188 33 -344 36 -317 5 -546 -81 -993 -375 -57 -37 -63 -45 -35 -46 9
0 64 -4 122 -9 58 -4 132 -9 165 -11 81 -5 548 -4 608 1 26 2 47 2 47 -1 0
-11 -200 -68 -279 -79 -20 -3 -63 -9 -96 -14 -64 -10 -517 -7 -572 3 -32 6
-54 9 -137 22 -22 4 -73 16 -114 28 l-74 22 203 147 c112 80 213 153 224 161
35 27 2 34 -88 20 -161 -26 -194 -29 -327 -29 -155 0 -200 6 -296 39 -79 27
-133 53 -209 102 -30 18 -59 34 -64 34 -16 0 -28 -32 -26 -66 13 -142 90 -314
189 -422 76 -83 99 -112 168 -212 88 -127 272 -315 378 -385 247 -163 503
-238 790 -230 69 2 139 6 155 9 68 13 101 19 115 22 36 6 170 47 243 76 56 21
75 33 66 39 -8 5 -22 9 -31 9 -28 0 -137 40 -208 75 -92 46 -214 139 -288 220
-62 68 -146 184 -139 192 2 2 49 -23 104 -56 182 -108 397 -196 530 -218 88
-15 322 -8 393 10 193 50 372 193 465 373 l36 69 -5 -75 c-20 -334 -281 -630
-690 -784 -61 -23 -193 -63 -237 -71 -12 -2 -28 -6 -37 -9 -26 -8 -166 -32
-247 -42 -69 -10 -387 -10 -486 -2 -285 25 -569 157 -771 360 -112 113 -170
207 -238 385 -8 20 -11 20 -120 -33 -126 -62 -276 -123 -365 -149 -33 -9 -71
-21 -85 -25 -14 -5 -41 -12 -60 -16 -121 -26 -140 -34 -140 -56 0 -16 69 -79
141 -130 165 -118 377 -209 636 -274 l112 -28 22 -55 c43 -110 132 -238 224
-323 145 -135 383 -224 657 -245 121 -9 1358 -9 1463 0 158 14 245 38 351 97
343 193 521 513 529 953 1 103 -13 259 -30 317 -2 8 -6 26 -9 40 -15 83 -123
360 -161 410 -6 8 -20 32 -30 53 -11 21 -55 89 -97 150 -173 251 -246 365
-268 417 -28 67 -34 194 -13 257 16 46 68 105 114 128 38 20 191 69 254 81 11
2 48 13 83 23 62 19 64 19 107 1 137 -59 262 -81 450 -80 153 0 180 2 270 15
82 13 98 31 71 82 -19 38 -74 67 -206 109 -61 19 -138 51 -173 71 -72 42 -251
168 -264 186 -5 6 -17 37 -27 67 -52 156 -112 257 -200 337 -131 120 -290 171
-476 151z m740 -693 c-21 -25 -30 -17 -30 26 l0 42 21 -27 c17 -21 19 -29 9
-41z"/>
</g>
</svg>
