<svg xmlns="http://www.w3.org/2000/svg" xmlns:xlink="http://www.w3.org/1999/xlink" width="500" zoomAndPan="magnify" viewBox="0 0 375 374.999991" height="500" preserveAspectRatio="xMidYMid meet" version="1.0"><path fill="#111111" d="M 240.523438 81.4375 C 232.953125 82.832031 226.558594 85.992188 221.378906 90.882812 C 213.808594 98.011719 209.691406 106.609375 207.855469 119.105469 C 206.015625 131.5625 208.109375 145.050781 214.800781 164.269531 C 217.777344 172.796875 218.289062 174.816406 218.289062 177.976562 C 218.289062 180.292969 218.21875 180.585938 217.152344 181.613281 C 216.050781 182.71875 215.976562 182.753906 213.402344 182.535156 C 211.933594 182.421875 209.03125 181.871094 206.898438 181.359375 C 199.476562 179.519531 194.953125 178.894531 187.238281 178.710938 C 181.503906 178.566406 178.96875 178.636719 175.660156 179.117188 C 162.394531 181.0625 151.445312 185.878906 133.804688 197.636719 L 128.4375 201.203125 L 133.582031 201.644531 C 145.050781 202.597656 155.414062 202.929688 167.320312 202.746094 C 174.042969 202.636719 179.925781 202.414062 180.4375 202.269531 C 181.101562 202.085938 181.246094 202.121094 180.988281 202.414062 C 180.292969 203.1875 172.683594 205.429688 167.832031 206.308594 C 160.335938 207.707031 155.265625 208.109375 145.894531 208.109375 C 132.8125 208.109375 121.824219 206.640625 113.777344 203.847656 L 112.304688 203.332031 L 114.328125 201.902344 C 115.429688 201.09375 120.539062 197.417969 125.71875 193.742188 C 130.902344 190.066406 135.347656 186.832031 135.566406 186.539062 C 135.824219 186.246094 135.933594 185.804688 135.789062 185.546875 C 135.457031 185.03125 133.363281 185.214844 127.519531 186.246094 C 114.953125 188.488281 104.808594 188.121094 96.355469 185.144531 C 92.3125 183.746094 90.328125 182.753906 86.066406 179.960938 C 83.015625 178.011719 82.539062 177.792969 81.730469 178.160156 C 80.921875 178.566406 80.847656 178.785156 80.847656 180.953125 C 80.847656 186.0625 83.75 194.074219 87.867188 200.136719 C 88.933594 201.714844 91.320312 204.621094 93.160156 206.53125 C 95.253906 208.699219 97.644531 211.710938 99.371094 214.394531 C 102.898438 219.835938 105.765625 223.398438 110.0625 227.660156 C 127.8125 245.410156 152.472656 252.46875 177.5 246.992188 C 181.136719 246.183594 190.359375 243.167969 193.484375 241.773438 C 195.101562 241.039062 195.210938 240.929688 194.402344 240.78125 C 184.589844 239.273438 173.859375 233.246094 165.996094 224.90625 C 163.203125 221.929688 159.34375 216.785156 158.023438 214.285156 L 157.542969 213.402344 L 158.792969 214.136719 C 159.492188 214.542969 161.878906 215.976562 164.085938 217.335938 C 171.546875 221.855469 180.292969 225.789062 187.054688 227.625 C 199.253906 230.933594 212.007812 230.125 221.304688 225.421875 C 228.984375 221.523438 235.785156 214.46875 239.089844 206.933594 L 240.304688 204.140625 L 240.339844 206.566406 C 240.375 216.304688 235.304688 227.734375 227.515625 235.597656 C 215.3125 247.875 195.101562 255.703125 170.699219 257.648438 C 163.902344 258.199219 150.488281 257.871094 145.195312 257.0625 C 132.148438 255.039062 119.949219 249.378906 110.136719 240.816406 C 103.046875 234.605469 97.019531 225.675781 94.996094 218.402344 L 94.371094 216.121094 L 89.890625 218.363281 C 78.71875 223.988281 68.097656 227.84375 57.734375 230.050781 C 55.859375 230.453125 54.058594 230.96875 53.800781 231.191406 C 52.625 232.144531 53.214844 233.285156 56.117188 235.785156 C 65.964844 244.199219 80.222656 250.742188 96.613281 254.453125 C 98.929688 254.964844 100.914062 255.519531 101.058594 255.664062 C 101.207031 255.8125 101.683594 257.023438 102.164062 258.347656 C 105.214844 267.09375 112.527344 275.839844 120.90625 280.949219 C 128.804688 285.726562 138.140625 288.296875 150.707031 289.179688 C 157.398438 289.65625 221.597656 289.695312 227.699219 289.214844 C 237.621094 288.445312 243.355469 286.496094 251.585938 281.09375 C 256.398438 277.933594 262.792969 271.722656 265.695312 267.386719 C 275.363281 252.945312 278.191406 231.519531 273.082031 211.824219 C 270.179688 200.761719 264.375 189.113281 256.03125 177.574219 C 243.722656 160.632812 242.03125 157.285156 242.066406 149.570312 C 242.066406 145.5625 242.875 142.953125 244.785156 140.640625 C 247.285156 137.625 250.628906 136.046875 259.191406 133.949219 C 262.058594 133.214844 265.734375 132.222656 267.386719 131.671875 L 270.363281 130.71875 L 273.121094 131.855469 C 276.574219 133.289062 281.316406 134.6875 285.652344 135.496094 C 292.855469 136.855469 312.40625 136.046875 315.234375 134.28125 C 316.519531 133.4375 316.335938 131.527344 314.792969 129.796875 C 313.140625 127.960938 310.457031 126.710938 305.421875 125.316406 C 297.15625 123.074219 295.097656 121.898438 281.023438 111.570312 C 280.617188 111.277344 279.84375 109.367188 279.109375 106.941406 C 275.066406 93.527344 266.984375 85.109375 255.039062 81.914062 C 251.328125 80.921875 244.457031 80.664062 240.523438 81.4375 Z M 283.261719 117.671875 C 283.667969 118.1875 283.558594 118.332031 282.566406 118.847656 C 281.902344 119.179688 281.316406 119.433594 281.242188 119.433594 C 281.207031 119.433594 281.132812 118.441406 281.132812 117.195312 L 281.132812 114.953125 L 281.976562 116.015625 C 282.417969 116.570312 283.007812 117.304688 283.261719 117.671875 Z M 283.261719 117.671875 " fill-opacity="1" fill-rule="nonzero"/></svg>