<?xml version="1.0" standalone="no"?>
<!DOCTYPE svg PUBLIC "-//W3C//DTD SVG 20010904//EN"
 "http://www.w3.org/TR/2001/REC-SVG-20010904/DTD/svg10.dtd">
<svg version="1.0" xmlns="http://www.w3.org/2000/svg"
 width="1024.000000pt" height="1024.000000pt" viewBox="0 0 1024.000000 1024.000000"
 preserveAspectRatio="xMidYMid meet">

<g transform="translate(0.000000,1024.000000) scale(0.100000,-0.100000)"
fill="#E6E6E6" stroke="none">
<path d="M6545 8024 c-206 -38 -380 -124 -521 -257 -206 -194 -318 -428 -368
-768 -50 -339 7 -706 189 -1229 81 -232 95 -287 95 -373 0 -63 -2 -71 -31 -99
-30 -30 -32 -31 -102 -25 -40 3 -119 18 -177 32 -202 50 -325 67 -535 72 -156
4 -225 2 -315 -11 -361 -53 -659 -184 -1139 -504 l-146 -97 140 -12 c312 -26
594 -35 918 -30 183 3 343 9 357 13 18 5 22 4 15 -4 -19 -21 -226 -82 -358
-106 -204 -38 -342 -49 -597 -49 -356 0 -655 40 -874 116 l-40 14 55 39 c30
22 169 122 310 222 141 100 262 188 268 196 7 8 10 20 6 27 -9 14 -66 9 -225
-19 -342 -61 -618 -51 -848 30 -110 38 -164 65 -280 141 -83 53 -96 59 -118
49 -22 -11 -24 -17 -24 -76 0 -139 79 -357 191 -522 29 -43 94 -122 144 -174
57 -59 122 -141 169 -214 96 -148 174 -245 291 -361 483 -483 1154 -675 1835
-526 99 22 350 104 435 142 44 20 47 23 25 27 -267 41 -559 205 -773 432 -76
81 -181 221 -217 289 l-13 24 34 -20 c19 -11 84 -50 144 -87 203 -123 441
-230 625 -280 332 -90 679 -68 932 60 209 106 394 298 484 503 l33 76 1 -66
c1 -265 -137 -576 -349 -790 -332 -334 -882 -547 -1546 -600 -185 -15 -550 -6
-694 16 -355 55 -687 209 -954 442 -193 169 -357 412 -412 610 l-17 62 -122
-61 c-304 -153 -593 -258 -875 -318 -51 -11 -100 -25 -107 -31 -32 -26 -16
-57 63 -125 268 -229 656 -407 1102 -508 63 -14 117 -29 121 -33 4 -4 17 -37
30 -73 83 -238 282 -476 510 -615 215 -130 469 -200 811 -224 182 -13 1929
-14 2095 -1 270 21 426 74 650 221 131 86 305 255 384 373 263 393 340 976
201 1512 -79 301 -237 618 -464 932 -335 461 -381 552 -380 762 0 109 22 180
74 243 68 82 159 125 392 182 78 20 178 47 223 62 l81 26 75 -31 c94 -39 223
-77 341 -99 196 -37 728 -15 805 33 35 23 30 75 -12 122 -45 50 -118 84 -255
122 -225 61 -281 93 -664 374 -11 8 -32 60 -52 126 -110 365 -330 594 -655
681 -101 27 -288 34 -395 13z m1163 -986 c11 -14 8 -18 -19 -32 -18 -9 -34
-16 -36 -16 -1 0 -3 27 -3 61 l0 61 23 -29 c12 -15 28 -35 35 -45z"/>
</g>
</svg>
