{
  "asset": {
    "extras": {
      "author": "endrit (https://sketchfab.com/endrit)",
      "license": "CC-BY-4.0 (http://creativecommons.org/licenses/by/4.0/)",
      "source": "https://sketchfab.com/3d-models/low-poly-ruby-786187083f994954a1db1ed9392c12b8",
      "title": "Low Poly Ruby"
    },
    "generator": "gltfeditor.com",
    "version": "2.0"
  },
  "buffers": [
    {
      "uri": "scene.bin",
      "byteLength": 4968
    }
  ],
  "bufferViews": [
    {
      "buffer": 0,
      "byteOffset": 0,
      "byteLength": 4224,
      "byteStride": 24,
      "target": 34962
    },
    {
      "buffer": 0,
      "byteOffset": 4224,
      "byteLength": 744,
      "target": 34963
    }
  ],
  "accessors": [
    {
      "bufferView": 0,
      "byteOffset": 0,
      "componentType": 5126,
      "normalized": false,
      "count": 176,
      "min": [
        -0.7471821904182434,
        -0.7471821904182434,
        -0.8300005793571472
      ],
      "max": [
        0.7471821904182434,
        0.7471821904182434,
        1
      ],
      "type": "VEC3"
    },
    {
      "bufferView": 0,
      "byteOffset": 12,
      "componentType": 5126,
      "normalized": false,
      "count": 176,
      "min": [
        -1,
        -1,
        -0.6622800230979919
      ],
      "max": [
        1,
        1,
        0.5588399767875671
      ],
      "type": "VEC3"
    },
    {
      "bufferView": 1,
      "byteOffset": 0,
      "componentType": 5125,
      "normalized": false,
      "count": 186,
      "min": [
        0
      ],
      "max": [
        175
      ],
      "type": "SCALAR"
    }
  ],
  "scene": 0,
  "scenes": [
    {
      "nodes": [
        5
      ],
      "name": "scene"
    }
  ],
  "nodes": [
    {
      "name": "Lamp"
    },
    {
      "name": "Lamp",
      "children": [
        0
      ],
      "matrix": [
        -0.29086142778396606,
        0.9551697373390198,
        -0.05519109591841698,
        0,
        -0.7711003422737122,
        -0.1998799443244934,
        0.6045199036598206,
        0,
        0.5663889050483704,
        0.2183898538351059,
        0.7946708798408508,
        0,
        4.076250076293945,
        1.0054500102996826,
        5.903860092163086,
        1
      ]
    },
    {
      "name": "Cylinder_0",
      "matrix": [
        1,
        0,
        0,
        0,
        0,
        1,
        0,
        0,
        0,
        0,
        1,
        0,
        -0.3251599967479706,
        -4.9148429326351106e-8,
        -1.4109686613082886,
        1
      ],
      "mesh": 0
    },
    {
      "name": "Cylinder",
      "children": [
        2
      ],
      "matrix": [
        1,
        0,
        0,
        0,
        0,
        1,
        0,
        0,
        0,
        0,
        1,
        0,
        0.3251599967479706,
        0,
        1.4358899593353271,
        1
      ]
    },
    {
      "name": "Root",
      "children": [
        1,
        3
      ]
    },
    {
      "name": "Sketchfab_model",
      "children": [
        4
      ],
      "matrix": [
        1,
        0,
        0,
        0,
        0,
        3.422854177870249e-8,
        -0.9999999403953552,
        0,
        0,
        0.9999999403953552,
        3.422854177870249e-8,
        0,
        0,
        0,
        0,
        1
      ]
    }
  ],
  "meshes": [
    {
      "primitives": [
        {
          "material": 0,
          "mode": 4,
          "attributes": {
            "NORMAL": 0,
            "POSITION": 1
          },
          "indices": 2
        }
      ]
    }
  ],
  "materials": [
    {
      "name": "Material",
      "pbrMetallicRoughness": {
        "baseColorFactor": [
          0.6509803921568628,
          0,
          0,
          0.9041539634146343
        ],
        "metallicFactor": 1,
        "roughnessFactor": 0.1053734756097561
      },
      "emissiveFactor": [
        0,
        0,
        0
      ],
      "alphaMode": "BLEND",
      "doubleSided": true
    }
  ]
}